<svg id="visual" viewBox="0 0 900 600" width="900" height="600" xmlns="http://www.w3.org/2000/svg" xmlns:xlink="http://www.w3.org/1999/xlink" version="1.1"><path d="M0 276L25 270.5C50 265 100 254 150 266.7C200 279.3 250 315.7 300 316C350 316.3 400 280.7 450 280.2C500 279.7 550 314.3 600 330.3C650 346.3 700 343.7 750 325.3C800 307 850 273 875 256L900 239L900 601L875 601C850 601 800 601 750 601C700 601 650 601 600 601C550 601 500 601 450 601C400 601 350 601 300 601C250 601 200 601 150 601C100 601 50 601 25 601L0 601Z" fill="#FA7268"></path></svg>